<mxfile host="app.diagrams.net" modified="2024-02-10T10:08:39.382Z" agent="Mozilla/5.0 (Windows NT 10.0; Win64; x64) AppleWebKit/537.36 (KHTML, like Gecko) Chrome/121.0.0.0 Safari/537.36" etag="HAKyq_aU8TkUaQdljgSK" version="22.1.20" type="github">
  <diagram name="Page-1" id="5TjQ2OHK8CWyCuA3FqAP">
    <mxGraphModel dx="2350" dy="1114" grid="1" gridSize="10" guides="1" tooltips="1" connect="1" arrows="1" fold="1" page="1" pageScale="1" pageWidth="1654" pageHeight="2336" math="0" shadow="0">
      <root>
        <mxCell id="0" />
        <mxCell id="1" parent="0" />
        <mxCell id="wxIU7IqaCRT0kXSGZUUa-1" value="FRs.&lt;br&gt;1. Multiple channels&lt;br&gt;2. diff workflows -&amp;gt;&lt;br&gt;1. apptmt - visting a doctor - billing.&lt;br&gt;3.&amp;nbsp; Respecting schedule of the doctor.&lt;br&gt;3. Choosing the doctor&lt;br&gt;" style="whiteSpace=wrap;html=1;aspect=fixed;" vertex="1" parent="1">
          <mxGeometry x="110" y="60" width="150" height="150" as="geometry" />
        </mxCell>
        <mxCell id="wxIU7IqaCRT0kXSGZUUa-2" value="NFRS&lt;br&gt;1. Scale - 5-10k users daily, 50-100 doctors, design for 50k&lt;br&gt;2.Highly Available&amp;nbsp;&lt;br&gt;3. High consistency&lt;br&gt;4. Latency -&amp;nbsp;&lt;br&gt;6. Reliability -&lt;br&gt;7. Durability&amp;nbsp; Data should not be lost&lt;br&gt;8. Analytics" style="whiteSpace=wrap;html=1;aspect=fixed;align=left;" vertex="1" parent="1">
          <mxGeometry x="120" y="290" width="150" height="150" as="geometry" />
        </mxCell>
        <mxCell id="wxIU7IqaCRT0kXSGZUUa-3" value="Estimation&lt;br&gt;1. Storage -&amp;gt;&amp;nbsp;&lt;br&gt;2. QPS -&amp;gt; from patients per day -&amp;gt; to QPS per sec." style="whiteSpace=wrap;html=1;aspect=fixed;" vertex="1" parent="1">
          <mxGeometry x="570" y="140" width="200" height="200" as="geometry" />
        </mxCell>
        <mxCell id="wxIU7IqaCRT0kXSGZUUa-4" value="Actor" style="shape=umlActor;verticalLabelPosition=bottom;verticalAlign=top;html=1;outlineConnect=0;" vertex="1" parent="1">
          <mxGeometry x="100" y="670" width="30" height="60" as="geometry" />
        </mxCell>
        <mxCell id="wxIU7IqaCRT0kXSGZUUa-8" value="Web interface" style="whiteSpace=wrap;html=1;aspect=fixed;" vertex="1" parent="1">
          <mxGeometry x="200" y="590" width="80" height="80" as="geometry" />
        </mxCell>
        <mxCell id="wxIU7IqaCRT0kXSGZUUa-9" value="IVR" style="whiteSpace=wrap;html=1;aspect=fixed;" vertex="1" parent="1">
          <mxGeometry x="200" y="690" width="80" height="80" as="geometry" />
        </mxCell>
        <mxCell id="wxIU7IqaCRT0kXSGZUUa-10" value="Walk-in" style="whiteSpace=wrap;html=1;aspect=fixed;" vertex="1" parent="1">
          <mxGeometry x="190" y="790" width="80" height="80" as="geometry" />
        </mxCell>
        <mxCell id="wxIU7IqaCRT0kXSGZUUa-11" value="API servers&lt;br&gt;&lt;br&gt;1. Appt fixing&lt;br&gt;2. Registration.&lt;br&gt;" style="whiteSpace=wrap;html=1;aspect=fixed;" vertex="1" parent="1">
          <mxGeometry x="360" y="650" width="130" height="130" as="geometry" />
        </mxCell>
        <mxCell id="wxIU7IqaCRT0kXSGZUUa-12" value="" style="endArrow=none;html=1;rounded=0;" edge="1" parent="1">
          <mxGeometry width="50" height="50" relative="1" as="geometry">
            <mxPoint x="320" y="950" as="sourcePoint" />
            <mxPoint x="320" y="560" as="targetPoint" />
          </mxGeometry>
        </mxCell>
        <mxCell id="wxIU7IqaCRT0kXSGZUUa-14" value="API gateway,&lt;br&gt;Auth, AUth,&lt;br&gt;Load balancing" style="edgeLabel;html=1;align=center;verticalAlign=middle;resizable=0;points=[];" vertex="1" connectable="0" parent="wxIU7IqaCRT0kXSGZUUa-12">
          <mxGeometry x="-0.068" y="3" relative="1" as="geometry">
            <mxPoint as="offset" />
          </mxGeometry>
        </mxCell>
        <mxCell id="wxIU7IqaCRT0kXSGZUUa-15" value="Patient" style="text;html=1;align=center;verticalAlign=middle;resizable=0;points=[];autosize=1;strokeColor=none;fillColor=none;" vertex="1" parent="1">
          <mxGeometry x="80" y="758" width="60" height="30" as="geometry" />
        </mxCell>
        <mxCell id="wxIU7IqaCRT0kXSGZUUa-16" value="" style="endArrow=none;html=1;rounded=0;" edge="1" parent="1">
          <mxGeometry width="50" height="50" relative="1" as="geometry">
            <mxPoint x="790" y="960" as="sourcePoint" />
            <mxPoint x="790" y="550" as="targetPoint" />
          </mxGeometry>
        </mxCell>
        <mxCell id="wxIU7IqaCRT0kXSGZUUa-17" value="Data Layer" style="text;html=1;align=center;verticalAlign=middle;resizable=0;points=[];autosize=1;strokeColor=none;fillColor=none;" vertex="1" parent="1">
          <mxGeometry x="850" y="938" width="80" height="30" as="geometry" />
        </mxCell>
        <mxCell id="wxIU7IqaCRT0kXSGZUUa-18" value="Summary Service&lt;br&gt;collating data from patient store&lt;br&gt;payment store&lt;br&gt;to genertae summary" style="whiteSpace=wrap;html=1;aspect=fixed;" vertex="1" parent="1">
          <mxGeometry x="371" y="1168" width="140" height="140" as="geometry" />
        </mxCell>
        <mxCell id="wxIU7IqaCRT0kXSGZUUa-19" value="API servers&lt;br&gt;&lt;br&gt;1. Appt fixing&lt;br&gt;2. Registration.&lt;br&gt;" style="whiteSpace=wrap;html=1;aspect=fixed;" vertex="1" parent="1">
          <mxGeometry x="370" y="660" width="130" height="130" as="geometry" />
        </mxCell>
        <mxCell id="wxIU7IqaCRT0kXSGZUUa-20" value="API servers&lt;br&gt;&lt;br&gt;1. Appt fixing&lt;br&gt;2. Registration.&lt;br&gt;" style="whiteSpace=wrap;html=1;aspect=fixed;" vertex="1" parent="1">
          <mxGeometry x="380" y="670" width="130" height="130" as="geometry" />
        </mxCell>
        <mxCell id="wxIU7IqaCRT0kXSGZUUa-21" value="API servers&lt;br&gt;&lt;br&gt;1. Appt fixing&lt;br&gt;2. Registration.&lt;br&gt;" style="whiteSpace=wrap;html=1;aspect=fixed;" vertex="1" parent="1">
          <mxGeometry x="390" y="680" width="130" height="130" as="geometry" />
        </mxCell>
        <mxCell id="wxIU7IqaCRT0kXSGZUUa-22" value="Patient store - sql&lt;br&gt;5k - 10k users - , concurrent&lt;br&gt;" style="shape=cylinder3;whiteSpace=wrap;html=1;boundedLbl=1;backgroundOutline=1;size=15;" vertex="1" parent="1">
          <mxGeometry x="850" y="670" width="140" height="100" as="geometry" />
        </mxCell>
        <mxCell id="wxIU7IqaCRT0kXSGZUUa-23" value="" style="endArrow=classic;html=1;rounded=0;exitX=1;exitY=0.5;exitDx=0;exitDy=0;" edge="1" parent="1" source="wxIU7IqaCRT0kXSGZUUa-24">
          <mxGeometry width="50" height="50" relative="1" as="geometry">
            <mxPoint x="510" y="820" as="sourcePoint" />
            <mxPoint x="840" y="740" as="targetPoint" />
          </mxGeometry>
        </mxCell>
        <mxCell id="wxIU7IqaCRT0kXSGZUUa-25" value="" style="endArrow=classic;html=1;rounded=0;exitX=1;exitY=0.5;exitDx=0;exitDy=0;" edge="1" parent="1" source="wxIU7IqaCRT0kXSGZUUa-21" target="wxIU7IqaCRT0kXSGZUUa-24">
          <mxGeometry width="50" height="50" relative="1" as="geometry">
            <mxPoint x="520" y="745" as="sourcePoint" />
            <mxPoint x="840" y="740" as="targetPoint" />
          </mxGeometry>
        </mxCell>
        <mxCell id="wxIU7IqaCRT0kXSGZUUa-24" value="Patient cache&lt;br&gt;Cache and db should be consistent" style="ellipse;whiteSpace=wrap;html=1;" vertex="1" parent="1">
          <mxGeometry x="707" y="690" width="120" height="80" as="geometry" />
        </mxCell>
        <mxCell id="wxIU7IqaCRT0kXSGZUUa-26" value="Patient,&lt;br&gt;Appointment" style="text;html=1;align=center;verticalAlign=middle;resizable=0;points=[];autosize=1;strokeColor=none;fillColor=none;" vertex="1" parent="1">
          <mxGeometry x="860" y="810" width="90" height="40" as="geometry" />
        </mxCell>
        <mxCell id="wxIU7IqaCRT0kXSGZUUa-28" value="Protocols of API,&lt;br&gt;Transactions in a distriuted system." style="whiteSpace=wrap;html=1;aspect=fixed;" vertex="1" parent="1">
          <mxGeometry x="520" y="370" width="80" height="80" as="geometry" />
        </mxCell>
        <mxCell id="wxIU7IqaCRT0kXSGZUUa-29" value="Apptmt store" style="shape=cylinder3;whiteSpace=wrap;html=1;boundedLbl=1;backgroundOutline=1;size=15;" vertex="1" parent="1">
          <mxGeometry x="860" y="800" width="120" height="80" as="geometry" />
        </mxCell>
        <mxCell id="wxIU7IqaCRT0kXSGZUUa-30" value="queues for each dr" style="rounded=0;whiteSpace=wrap;html=1;" vertex="1" parent="1">
          <mxGeometry x="380" y="850" width="100" height="40" as="geometry" />
        </mxCell>
        <mxCell id="wxIU7IqaCRT0kXSGZUUa-31" value="" style="endArrow=classic;html=1;rounded=0;exitX=0.388;exitY=1.055;exitDx=0;exitDy=0;exitPerimeter=0;entryX=0.436;entryY=0.08;entryDx=0;entryDy=0;entryPerimeter=0;" edge="1" parent="1" source="wxIU7IqaCRT0kXSGZUUa-21" target="wxIU7IqaCRT0kXSGZUUa-30">
          <mxGeometry width="50" height="50" relative="1" as="geometry">
            <mxPoint x="510" y="940" as="sourcePoint" />
            <mxPoint x="560" y="890" as="targetPoint" />
          </mxGeometry>
        </mxCell>
        <mxCell id="wxIU7IqaCRT0kXSGZUUa-32" value="Medical record Service&lt;br&gt;" style="whiteSpace=wrap;html=1;aspect=fixed;" vertex="1" parent="1">
          <mxGeometry x="370" y="938" width="80" height="80" as="geometry" />
        </mxCell>
        <mxCell id="wxIU7IqaCRT0kXSGZUUa-33" value="" style="endArrow=classic;html=1;rounded=0;exitX=0.5;exitY=0;exitDx=0;exitDy=0;entryX=0.5;entryY=1;entryDx=0;entryDy=0;" edge="1" parent="1" source="wxIU7IqaCRT0kXSGZUUa-32" target="wxIU7IqaCRT0kXSGZUUa-30">
          <mxGeometry width="50" height="50" relative="1" as="geometry">
            <mxPoint x="510" y="940" as="sourcePoint" />
            <mxPoint x="560" y="890" as="targetPoint" />
          </mxGeometry>
        </mxCell>
        <mxCell id="wxIU7IqaCRT0kXSGZUUa-34" value="" style="endArrow=classic;html=1;rounded=0;" edge="1" parent="1">
          <mxGeometry width="50" height="50" relative="1" as="geometry">
            <mxPoint x="460" y="970" as="sourcePoint" />
            <mxPoint x="830" y="770" as="targetPoint" />
          </mxGeometry>
        </mxCell>
        <mxCell id="wxIU7IqaCRT0kXSGZUUa-35" value="Medical Records" style="edgeLabel;html=1;align=center;verticalAlign=middle;resizable=0;points=[];" vertex="1" connectable="0" parent="wxIU7IqaCRT0kXSGZUUa-34">
          <mxGeometry x="-0.0361" y="3" relative="1" as="geometry">
            <mxPoint as="offset" />
          </mxGeometry>
        </mxCell>
        <mxCell id="wxIU7IqaCRT0kXSGZUUa-36" value="Summary queue" style="rounded=0;whiteSpace=wrap;html=1;" vertex="1" parent="1">
          <mxGeometry x="375" y="1040" width="120" height="60" as="geometry" />
        </mxCell>
        <mxCell id="wxIU7IqaCRT0kXSGZUUa-37" value="" style="endArrow=classic;html=1;rounded=0;exitX=0.5;exitY=1;exitDx=0;exitDy=0;entryX=0.5;entryY=0;entryDx=0;entryDy=0;" edge="1" parent="1" source="wxIU7IqaCRT0kXSGZUUa-32" target="wxIU7IqaCRT0kXSGZUUa-36">
          <mxGeometry width="50" height="50" relative="1" as="geometry">
            <mxPoint x="510" y="990" as="sourcePoint" />
            <mxPoint x="560" y="940" as="targetPoint" />
          </mxGeometry>
        </mxCell>
        <mxCell id="wxIU7IqaCRT0kXSGZUUa-38" value="" style="endArrow=classic;html=1;rounded=0;exitX=0.5;exitY=1;exitDx=0;exitDy=0;entryX=0.5;entryY=0;entryDx=0;entryDy=0;" edge="1" parent="1" source="wxIU7IqaCRT0kXSGZUUa-36" target="wxIU7IqaCRT0kXSGZUUa-18">
          <mxGeometry width="50" height="50" relative="1" as="geometry">
            <mxPoint x="510" y="1200" as="sourcePoint" />
            <mxPoint x="560" y="1150" as="targetPoint" />
          </mxGeometry>
        </mxCell>
        <mxCell id="wxIU7IqaCRT0kXSGZUUa-39" value="" style="endArrow=classic;html=1;rounded=0;exitX=1;exitY=0.5;exitDx=0;exitDy=0;" edge="1" parent="1" source="wxIU7IqaCRT0kXSGZUUa-18" target="wxIU7IqaCRT0kXSGZUUa-40">
          <mxGeometry width="50" height="50" relative="1" as="geometry">
            <mxPoint x="777" y="1078" as="sourcePoint" />
            <mxPoint x="827" y="850" as="targetPoint" />
          </mxGeometry>
        </mxCell>
        <mxCell id="wxIU7IqaCRT0kXSGZUUa-40" value="Payment db" style="shape=cylinder3;whiteSpace=wrap;html=1;boundedLbl=1;backgroundOutline=1;size=15;" vertex="1" parent="1">
          <mxGeometry x="875" y="1040" width="60" height="80" as="geometry" />
        </mxCell>
        <mxCell id="wxIU7IqaCRT0kXSGZUUa-41" value="" style="endArrow=classic;html=1;rounded=0;exitX=1;exitY=0.3;exitDx=0;exitDy=0;exitPerimeter=0;entryX=0.086;entryY=1.048;entryDx=0;entryDy=0;entryPerimeter=0;" edge="1" parent="1" source="wxIU7IqaCRT0kXSGZUUa-18" target="wxIU7IqaCRT0kXSGZUUa-22">
          <mxGeometry width="50" height="50" relative="1" as="geometry">
            <mxPoint x="510" y="1060" as="sourcePoint" />
            <mxPoint x="560" y="1010" as="targetPoint" />
          </mxGeometry>
        </mxCell>
        <mxCell id="wxIU7IqaCRT0kXSGZUUa-42" value="Scheduler,&lt;br&gt;Process all the tasks,&lt;br&gt;tasks are in given order" style="whiteSpace=wrap;html=1;aspect=fixed;" vertex="1" parent="1">
          <mxGeometry x="160" y="1470" width="80" height="80" as="geometry" />
        </mxCell>
      </root>
    </mxGraphModel>
  </diagram>
</mxfile>
